<svg width="24" height="24" viewBox="0 0 24 24" fill="none" xmlns="http://www.w3.org/2000/svg">
<g clip-path="url(#clip0_116_340)">
<path d="M8 12C11.309 12 14 9.309 14 6C14 2.691 11.309 0 8 0C4.691 0 2 2.691 2 6C2 9.309 4.691 12 8 12ZM8 1C10.757 1 13 3.243 13 6C13 8.757 10.757 11 8 11C5.243 11 3 8.757 3 6C3 3.243 5.243 1 8 1ZM9 14.5C9 14.776 8.776 15 8.5 15C4.364 15 1 18.364 1 22.5V23.5C1 23.776 0.776 24 0.5 24C0.224 24 0 23.776 0 23.5V22.5C0 17.813 3.813 14 8.5 14C8.776 14 9 14.224 9 14.5ZM17 15C15.897 15 15 15.897 15 17C15 18.103 15.897 19 17 19C18.103 19 19 18.103 19 17C19 15.897 18.103 15 17 15ZM17 18C16.449 18 16 17.551 16 17C16 16.449 16.449 16 17 16C17.551 16 18 16.449 18 17C18 17.551 17.551 18 17 18ZM22.506 18.478L21.86 18.101C21.954 17.716 22 17.354 22 17.001C22 16.648 21.954 16.286 21.86 15.9L22.506 15.523C22.852 15.321 23.099 14.996 23.201 14.608C23.303 14.22 23.247 13.816 23.045 13.471C22.843 13.125 22.519 12.878 22.131 12.776C21.742 12.674 21.339 12.729 20.993 12.931L20.352 13.305C19.815 12.817 19.185 12.453 18.499 12.237V11.499C18.499 10.672 17.826 9.999 16.999 9.999C16.172 9.999 15.499 10.672 15.499 11.499V12.237C14.812 12.453 14.183 12.817 13.646 13.305L13.005 12.931C12.659 12.729 12.255 12.674 11.867 12.776C11.48 12.878 11.155 13.125 10.953 13.47C10.751 13.816 10.696 14.22 10.797 14.607C10.898 14.994 11.146 15.32 11.492 15.522L12.138 15.899C12.044 16.284 11.998 16.647 11.998 17C11.998 17.353 12.044 17.715 12.138 18.1L11.492 18.477C11.146 18.679 10.899 19.004 10.797 19.392C10.695 19.78 10.751 20.184 10.953 20.529C11.155 20.875 11.479 21.122 11.867 21.224C12.255 21.326 12.659 21.271 13.004 21.068L13.645 20.694C14.182 21.183 14.812 21.546 15.498 21.762V22.5C15.498 23.327 16.171 24 16.998 24C17.825 24 18.498 23.327 18.498 22.5V21.762C19.185 21.545 19.814 21.182 20.351 20.694L20.991 21.068C21.337 21.271 21.741 21.325 22.129 21.224C22.517 21.122 22.841 20.875 23.043 20.53C23.245 20.184 23.3 19.78 23.199 19.393C23.098 19.006 22.85 18.68 22.504 18.478H22.506ZM22.182 20.025C22.115 20.14 22.006 20.223 21.877 20.256C21.748 20.29 21.613 20.271 21.498 20.204L20.527 19.637C20.326 19.519 20.07 19.556 19.91 19.727C19.361 20.313 18.661 20.716 17.889 20.892C17.661 20.944 17.5 21.146 17.5 21.379V22.499C17.5 22.775 17.276 22.999 17 22.999C16.724 22.999 16.5 22.775 16.5 22.499V21.379C16.5 21.146 16.339 20.943 16.111 20.892C15.338 20.716 14.639 20.313 14.09 19.727C13.993 19.623 13.86 19.569 13.725 19.569C13.639 19.569 13.552 19.591 13.473 19.637L12.502 20.204C12.387 20.271 12.252 20.29 12.123 20.256C11.994 20.222 11.886 20.14 11.818 20.024C11.751 19.909 11.732 19.774 11.766 19.646C11.8 19.517 11.882 19.408 11.997 19.341L12.976 18.769C13.178 18.651 13.271 18.41 13.201 18.187C13.063 17.748 12.999 17.37 12.999 16.999C12.999 16.628 13.063 16.251 13.201 15.811C13.271 15.588 13.178 15.347 12.976 15.23L11.997 14.659C11.882 14.592 11.799 14.483 11.766 14.354C11.732 14.225 11.75 14.091 11.818 13.975C11.885 13.86 11.994 13.777 12.123 13.744C12.251 13.709 12.386 13.727 12.502 13.795L13.473 14.362C13.674 14.479 13.931 14.443 14.09 14.273C14.639 13.687 15.339 13.284 16.111 13.108C16.339 13.056 16.5 12.854 16.5 12.621V11.501C16.5 11.225 16.724 11.001 17 11.001C17.276 11.001 17.5 11.225 17.5 11.501V12.621C17.5 12.854 17.661 13.057 17.889 13.108C18.662 13.284 19.361 13.687 19.91 14.273C20.07 14.443 20.326 14.48 20.527 14.362L21.498 13.795C21.613 13.727 21.748 13.709 21.877 13.744C22.006 13.778 22.114 13.86 22.182 13.976C22.249 14.091 22.268 14.226 22.234 14.354C22.2 14.483 22.118 14.592 22.003 14.659L21.024 15.23C20.822 15.347 20.729 15.588 20.799 15.811C20.937 16.251 21.001 16.629 21.001 16.999C21.001 17.369 20.937 17.747 20.799 18.187C20.729 18.41 20.822 18.651 21.024 18.769L22.003 19.341C22.118 19.408 22.201 19.517 22.234 19.646C22.268 19.775 22.25 19.909 22.182 20.025Z" fill="black"/>
</g>
<defs>
<clipPath id="clip0_116_340">
<rect width="24" height="24" fill="white"/>
</clipPath>
</defs>
</svg>
