<svg width="32" height="32" viewBox="0 0 32 32" fill="none" xmlns="http://www.w3.org/2000/svg">
<path d="M24 6.66667H1.33333C0.6 6.66667 0 6.06667 0 5.33333C0 4.6 0.6 4 1.33333 4H24C24.7333 4 25.3333 4.6 25.3333 5.33333C25.3333 6.06667 24.7333 6.66667 24 6.66667ZM25.3333 26.6667C25.3333 25.9333 24.7333 25.3333 24 25.3333H1.33333C0.6 25.3333 0 25.9333 0 26.6667C0 27.4 0.6 28 1.33333 28H24C24.7333 28 25.3333 27.4 25.3333 26.6667ZM32 16C32 15.2667 31.4 14.6667 30.6667 14.6667H8C7.26667 14.6667 6.66667 15.2667 6.66667 16C6.66667 16.7333 7.26667 17.3333 8 17.3333H30.6667C31.4 17.3333 32 16.7333 32 16Z" fill="black"/>
</svg>
