<svg width="24" height="24" viewBox="0 0 24 24" fill="none" xmlns="http://www.w3.org/2000/svg">
<path d="M23.669 12.001L20.789 4.082C20.118 2.239 18.35 1 16.389 1H7.611C5.65 1 3.882 2.239 3.211 4.082L0.331 12.001C0.111 12.604 0 13.236 0 13.88V15.499C0 16.89 0.822 18.084 2 18.648V20.499C2 21.877 3.121 22.999 4.5 22.999C5.879 22.999 7 21.877 7 20.499V18.999H17V20.499C17 21.877 18.121 22.999 19.5 22.999C20.879 22.999 22 21.877 22 20.499V18.648C23.178 18.084 24 16.89 24 15.499V13.88C24 13.236 23.889 12.604 23.669 12.001ZM4.15 4.424C4.677 2.974 6.069 2 7.611 2H16.388C17.93 2 19.322 2.974 19.849 4.424L21.513 9H2.486L4.15 4.424ZM6 20.5C6 21.327 5.327 22 4.5 22C3.673 22 3 21.327 3 20.5V18.949C3.165 18.973 3.329 19 3.5 19H6V20.5ZM15 18H9V17C9 16.449 9.448 16 10 16H14C14.552 16 15 16.449 15 17V18ZM21 20.5C21 21.327 20.327 22 19.5 22C18.673 22 18 21.327 18 20.5V19H20.5C20.671 19 20.835 18.973 21 18.949V20.5ZM23 15.5C23 16.878 21.879 18 20.5 18H16V17C16 15.897 15.103 15 14 15H10C8.897 15 8 15.897 8 17V18H3.5C2.121 18 1 16.878 1 15.5V13.881C1 13.583 1.037 13.29 1.095 13H3.5C3.776 13 4 12.776 4 12.5C4 12.224 3.776 12 3.5 12H1.395L2.122 10H21.877L22.604 12H20.499C20.223 12 19.999 12.224 19.999 12.5C19.999 12.776 20.223 13 20.499 13H22.904C22.962 13.289 22.999 13.583 22.999 13.881L23 15.5Z" fill="black"/>
</svg>
