<svg width="24" height="24" viewBox="0 0 24 24" fill="none" xmlns="http://www.w3.org/2000/svg">
<path d="M23.235 8.81741C21.67 4.61141 17.803 1.57441 13.385 1.07841C9.917 0.691414 6.584 1.74541 4.004 4.05141C1.46 6.32641 0 9.58842 0 13.0004C0 16.0734 1.261 19.1384 3.459 21.4084C4.438 22.4204 5.85 23.0004 7.333 23.0004H16.665C18.153 23.0004 19.573 22.4134 20.561 21.3894C23.832 17.9934 24.858 13.1754 23.235 8.81741ZM19.841 20.6944C19.04 21.5244 17.882 22.0004 16.664 22.0004H7.333C6.119 22.0004 4.969 21.5314 4.178 20.7134C2.158 18.6274 1 15.8164 1 13.0004C1 9.87241 2.338 6.88341 4.672 4.79641C6.715 2.97041 9.273 1.99941 11.984 1.99941C12.411 1.99941 12.841 2.02341 13.275 2.07241C17.321 2.52641 20.863 5.31041 22.298 9.16741C23.785 13.1614 22.843 17.5784 19.841 20.6944ZM17.853 7.14641C17.658 6.95141 17.341 6.95141 17.146 7.14641L13.009 11.2834C12.712 11.1074 12.369 10.9994 12 10.9994C10.897 10.9994 10 11.8964 10 12.9994C10 14.1024 10.897 14.9994 12 14.9994C13.103 14.9994 14 14.1024 14 12.9994C14 12.6294 13.892 12.2874 13.716 11.9904L17.853 7.85341C18.048 7.65841 18.048 7.34141 17.853 7.14641ZM11.999 14.0004C11.447 14.0004 10.999 13.5524 10.999 13.0004C10.999 12.4484 11.447 12.0004 11.999 12.0004C12.551 12.0004 12.999 12.4484 12.999 13.0004C12.999 13.5524 12.551 14.0004 11.999 14.0004ZM19.333 9.80042C19.775 10.8124 19.999 11.8884 19.999 13.0004C19.999 14.9724 19.275 16.8664 17.961 18.3344C17.862 18.4434 17.726 18.5004 17.589 18.5004C17.47 18.5004 17.351 18.4584 17.255 18.3724C17.05 18.1884 17.032 17.8724 17.217 17.6664C18.366 16.3834 18.999 14.7264 18.999 13.0004C18.999 12.0264 18.803 11.0854 18.417 10.2004C18.307 9.94741 18.422 9.65241 18.675 9.54241C18.929 9.43541 19.223 9.54741 19.333 9.80042ZM11.999 6.00041C8.14 6.00041 4.999 9.14141 4.999 13.0004C4.999 14.7264 5.632 16.3834 6.781 17.6664C6.966 17.8724 6.948 18.1884 6.743 18.3724C6.647 18.4584 6.528 18.5004 6.409 18.5004C6.272 18.5004 6.136 18.4434 6.037 18.3344C4.723 16.8664 3.999 14.9724 3.999 13.0004C3.999 8.58942 7.588 5.00041 11.999 5.00041C13.111 5.00041 14.187 5.22441 15.199 5.66641C15.452 5.77641 15.567 6.07141 15.457 6.32441C15.347 6.57741 15.053 6.69241 14.799 6.58241C13.914 6.19641 12.973 6.00041 11.999 6.00041Z" fill="#202020"/>
</svg>
