<svg width="24" height="24" viewBox="0 0 24 24" fill="none" xmlns="http://www.w3.org/2000/svg">
<g clip-path="url(#clip0_116_336)">
<path d="M23.9401 7.7473C23.0751 3.9423 20.0581 0.924305 16.2521 0.0593047C15.6991 -0.0656953 15.1271 0.0633047 14.6841 0.415305C14.2491 0.762305 13.9991 1.2813 13.9991 1.8373V7.4993C13.9991 8.87731 15.1201 9.9993 16.4991 9.9993H22.1611H22.1621C22.7181 9.9993 23.2361 9.7493 23.5831 9.3153C23.9361 8.8733 24.0661 8.3013 23.9401 7.7473ZM22.8021 8.69131C22.6461 8.88731 22.4121 8.9993 22.1621 8.9993H16.4991C15.6721 8.9993 14.9991 8.3253 14.9991 7.4993V1.8373C14.9991 1.5873 15.1111 1.3543 15.3081 1.1973C15.5121 1.0353 15.7761 0.976305 16.0311 1.0343C19.4631 1.8153 22.1851 4.5373 22.9651 7.9703C23.0231 8.2263 22.9641 8.48931 22.8021 8.69231V8.69131ZM19.5831 12.0003H13.5001C12.6731 12.0003 12.0001 11.3273 12.0001 10.5003V4.4173C12.0001 3.5613 11.7541 2.9133 11.2691 2.4923C10.6221 1.9303 9.76705 1.9793 9.43005 2.0283C3.74605 2.8413 -0.382947 8.01331 0.0290528 13.8023C0.414053 19.2143 4.78605 23.5873 10.1981 23.9713C10.4651 23.9903 10.7301 23.9993 10.9941 23.9993C16.4541 23.9993 21.1971 19.9923 21.9721 14.5703C22.0201 14.2333 22.0711 13.3793 21.5081 12.7313C21.0871 12.2463 20.4401 12.0003 19.5831 12.0003ZM20.9811 14.4293C20.2421 19.5963 15.5331 23.3473 10.2691 22.9743C5.43005 22.6303 1.37005 18.5693 1.02505 13.7303C0.651053 8.46231 4.40405 3.7573 9.57105 3.0183C9.62205 3.0113 9.71405 3.0003 9.82605 3.0003C10.0581 3.0003 10.3801 3.0433 10.6141 3.2473C10.8711 3.4703 11.0011 3.8633 11.0011 4.4163V10.4993C11.0011 11.8773 12.1231 12.9993 13.5011 12.9993H19.5841C20.1381 12.9993 20.5311 13.1293 20.7531 13.3863C21.0541 13.7333 21.0041 14.2723 20.9821 14.4283L20.9811 14.4293Z" fill="black"/>
</g>
<defs>
<clipPath id="clip0_116_336">
<rect width="24" height="24" fill="white"/>
</clipPath>
</defs>
</svg>
