<svg width="24" height="24" viewBox="0 0 24 24" fill="none" xmlns="http://www.w3.org/2000/svg">
<g clip-path="url(#clip0_116_334)">
<path d="M3 13C3 14.103 3.897 15 5 15C6.103 15 7 14.103 7 13C7 11.897 6.103 11 5 11C3.897 11 3 11.897 3 13ZM6 13C6 13.551 5.552 14 5 14C4.448 14 4 13.551 4 13C4 12.449 4.448 12 5 12C5.552 12 6 12.449 6 13ZM19.5 0H4.5C2.019 0 0 2.019 0 4.5V13.5C0 15.981 2.019 18 4.5 18H13.5C13.776 18 14 17.776 14 17.5C14 17.224 13.776 17 13.5 17H4.5C2.57 17 1 15.43 1 13.5V6H23V11.5C23 11.776 23.224 12 23.5 12C23.776 12 24 11.776 24 11.5V4.5C24 2.019 21.981 0 19.5 0ZM1 5V4.5C1 2.57 2.57 1 4.5 1H19.5C21.43 1 23 2.57 23 4.5V5H1ZM22 15C22 13.346 20.654 12 19 12C17.346 12 16 13.346 16 15C16 16.654 17.346 18 19 18C20.654 18 22 16.654 22 15ZM17 15C17 13.897 17.897 13 19 13C20.103 13 21 13.897 21 15C21 16.103 20.103 17 19 17C17.897 17 17 16.103 17 15ZM23.997 23.444C24.028 23.718 23.831 23.966 23.557 23.997C23.537 23.999 23.519 24 23.499 24C23.248 24 23.032 23.812 23.003 23.556C22.774 21.529 21.052 20 19 20C16.948 20 15.227 21.529 14.997 23.556C14.966 23.831 14.713 24.03 14.443 23.996C14.169 23.965 13.971 23.718 14.003 23.443C14.291 20.909 16.439 18.999 19 18.999C21.561 18.999 23.709 20.91 23.997 23.444Z" fill="black"/>
</g>
<defs>
<clipPath id="clip0_116_334">
<rect width="24" height="24" fill="white"/>
</clipPath>
</defs>
</svg>
