<svg width="24" height="24" viewBox="0 0 24 24" fill="none" xmlns="http://www.w3.org/2000/svg">
<g clip-path="url(#clip0_116_332)">
<path d="M17.979 23.359C18.057 23.624 17.906 23.901 17.64 23.979C17.593 23.993 17.546 24 17.499 24C17.282 24 17.083 23.859 17.02 23.641C16.389 21.497 14.325 20 11.999 20C9.67302 20 7.60902 21.497 6.97802 23.641C6.90102 23.907 6.62102 24.057 6.35802 23.98C6.09202 23.902 5.94102 23.625 6.01902 23.36C6.77302 20.793 9.23202 19.001 11.998 19.001C14.764 19.001 17.224 20.793 17.977 23.36L17.979 23.359ZM23.979 14.359C23.225 11.792 20.766 10 18 10C17.724 10 17.5 10.224 17.5 10.5C17.5 10.776 17.724 11 18 11C20.325 11 22.39 12.497 23.021 14.641C23.084 14.86 23.284 15 23.5 15C23.547 15 23.594 14.993 23.641 14.979C23.907 14.901 24.057 14.624 23.979 14.359ZM6.50002 10.5C6.50002 10.224 6.27602 10 6.00002 10C3.23302 10 0.774016 11.792 0.0210163 14.359C-0.0569837 14.624 0.0940163 14.901 0.360016 14.979C0.407016 14.993 0.454016 15 0.501016 15C0.718016 15 0.917016 14.859 0.980016 14.641C1.61102 12.497 3.67502 11 6.00102 11C6.27702 11 6.50002 10.776 6.50002 10.5ZM12 9C14.206 9 16 10.794 16 13C16 15.206 14.206 17 12 17C9.79402 17 8.00002 15.206 8.00002 13C8.00002 10.794 9.79402 9 12 9ZM9.00002 13C9.00002 14.654 10.346 16 12 16C13.654 16 15 14.654 15 13C15 11.346 13.654 10 12 10C10.346 10 9.00002 11.346 9.00002 13ZM14 4C14 1.794 15.794 0 18 0C20.206 0 22 1.794 22 4C22 6.206 20.206 8 18 8C15.794 8 14 6.206 14 4ZM15 4C15 5.654 16.346 7 18 7C19.654 7 21 5.654 21 4C21 2.346 19.654 1 18 1C16.346 1 15 2.346 15 4ZM2.00002 4C2.00002 1.794 3.79402 0 6.00002 0C8.20602 0 10 1.794 10 4C10 6.206 8.20602 8 6.00002 8C3.79402 8 2.00002 6.206 2.00002 4ZM3.00002 4C3.00002 5.654 4.34602 7 6.00002 7C7.65402 7 9.00002 5.654 9.00002 4C9.00002 2.346 7.65402 1 6.00002 1C4.34602 1 3.00002 2.346 3.00002 4Z" fill="black"/>
</g>
<defs>
<clipPath id="clip0_116_332">
<rect width="24" height="24" fill="white"/>
</clipPath>
</defs>
</svg>
