<svg width="71" height="85" viewBox="0 0 71 85" fill="none" xmlns="http://www.w3.org/2000/svg">
<path d="M63.635 9.35707L35.5 0.0318604L7.36501 9.35707C5.24523 10.0598 3.40076 11.4126 2.0936 13.2233C0.78644 15.034 0.0830508 17.2105 0.0833436 19.4437V42.5C0.0833436 69.1475 32.6667 83.8631 34.0621 84.4758L35.3158 85.0319L36.6192 84.5998C38.0217 84.1323 70.9167 72.8769 70.9167 42.5V19.4437C70.917 17.2105 70.2136 15.034 68.9064 13.2233C67.5993 11.4126 65.7548 10.0598 63.635 9.35707ZM37.0725 49.5444C36.4534 50.1676 35.7166 50.6617 34.9049 50.998C34.0933 51.3342 33.2229 51.5058 32.3444 51.5029H32.2275C31.3311 51.4892 30.4467 51.2938 29.628 50.9285C28.8092 50.5633 28.073 50.0358 27.464 49.3779L19.2969 40.8779L24.4075 35.9833L32.355 44.2708L50.7044 25.9214L55.7123 30.9294L37.0725 49.5444Z" fill="#00C7F4"/>
</svg>
