<svg width="24" height="24" viewBox="0 0 24 24" fill="none" xmlns="http://www.w3.org/2000/svg">
<g clip-path="url(#clip0_116_342)">
<path d="M22.859 13.662L20.961 6.826C19.844 2.807 16.151 0 11.979 0C7.57702 0 3.83502 3.002 2.88502 7.28L1.11902 13.915C0.788023 15.402 1.14502 16.938 2.09902 18.13C3.05402 19.318 4.47502 20 5.99902 20H7.12102C7.59102 22.305 9.60102 24 11.999 24C14.397 24 16.407 22.305 16.877 20H18.041C19.617 20 21.068 19.28 22.022 18.025C22.976 16.771 23.281 15.181 22.859 13.662ZM12 23C10.151 23 8.58602 21.742 8.13902 20H15.862C15.414 21.742 13.85 23 12.001 23H12ZM21.227 17.42C20.464 18.424 19.303 19 18.042 19H6.00002C4.78002 19 3.64302 18.454 2.88002 17.504C2.11602 16.552 1.83102 15.322 2.09102 14.152L3.85702 7.516C4.70902 3.68 8.04902 1 11.979 1C15.703 1 19 3.506 19.996 7.094L21.894 13.93C22.232 15.146 21.989 16.417 21.227 17.42Z" fill="black"/>
</g>
<defs>
<clipPath id="clip0_116_342">
<rect width="24" height="24" fill="white"/>
</clipPath>
</defs>
</svg>
