<svg width="23" height="24" viewBox="0 0 23 24" fill="none" xmlns="http://www.w3.org/2000/svg">
<path d="M21.8588 13.662L19.9608 6.826C18.8438 2.807 15.1508 0 10.9788 0C6.57678 0 2.83478 3.002 1.88478 7.28L0.118779 13.915C-0.212221 15.402 0.144779 16.938 1.09878 18.13C2.05378 19.318 3.47478 20 4.99878 20H6.12078C6.59078 22.305 8.60078 24 10.9988 24C13.3968 24 15.4068 22.305 15.8768 20H17.0408C18.6168 20 20.0678 19.28 21.0218 18.025C21.9758 16.771 22.2808 15.181 21.8588 13.662ZM10.9998 23C9.15078 23 7.58578 21.742 7.13878 20H14.8618C14.4138 21.742 12.8498 23 11.0008 23H10.9998ZM20.2268 17.42C19.4638 18.424 18.3028 19 17.0418 19H4.99978C3.77978 19 2.64278 18.454 1.87978 17.504C1.11578 16.552 0.830779 15.322 1.09078 14.152L2.85678 7.516C3.70878 3.68 7.04878 1 10.9788 1C14.7028 1 17.9998 3.506 18.9958 7.094L20.8938 13.93C21.2318 15.146 20.9888 16.417 20.2268 17.42Z" fill="#202020"/>
</svg>
