<svg width="24" height="24" viewBox="0 0 24 24" fill="none" xmlns="http://www.w3.org/2000/svg">
<g clip-path="url(#clip0_116_326)">
<path d="M21.68 9.10786L13.204 0.722862C12.655 0.172862 11.869 -0.0891385 11.098 0.0128615L4.20899 0.954862C3.93499 0.992862 3.74299 1.24486 3.78099 1.51786C3.81799 1.79086 4.07399 1.97886 4.34299 1.94586L11.232 1.00386C11.692 0.937862 12.166 1.09886 12.499 1.43086L20.975 9.81586C22.331 11.1719 22.338 13.3849 20.985 14.7559L20.795 14.9549C20.586 14.2779 20.215 13.6409 19.681 13.1069L11.204 4.72286C10.655 4.17286 9.86699 3.91086 9.09799 4.01386L2.20899 4.95586C1.98099 4.98686 1.80499 5.16886 1.77899 5.39586L1.01399 12.3119C0.930994 13.0709 1.19299 13.8149 1.73399 14.3559L10.151 22.6819C11.001 23.5319 12.13 23.9999 13.332 23.9999H13.346C14.554 23.9959 15.687 23.5209 16.535 22.6609L19.702 19.4529C20.588 18.5549 21.019 17.3719 20.994 16.1959L21.702 15.4529C23.434 13.6989 23.426 10.8529 21.68 9.10786ZM18.992 18.7509L15.825 21.9589C15.165 22.6279 14.283 22.9979 13.344 23.0009H13.333C12.398 23.0009 11.521 22.6369 10.857 21.9739L2.43899 13.6459C2.11499 13.3219 1.95899 12.8759 2.00799 12.4209L2.72999 5.89286L9.23199 5.00386C9.69399 4.94086 10.166 5.09886 10.499 5.43086L18.975 13.8159C20.331 15.1719 20.338 17.3859 18.992 18.7509ZM7.99999 9.99986C7.99999 10.5519 7.55199 10.9999 6.99999 10.9999C6.44799 10.9999 5.99999 10.5519 5.99999 9.99986C5.99999 9.44786 6.44799 8.99986 6.99999 8.99986C7.55199 8.99986 7.99999 9.44786 7.99999 9.99986Z" fill="black"/>
</g>
<defs>
<clipPath id="clip0_116_326">
<rect width="24" height="24" fill="white"/>
</clipPath>
</defs>
</svg>
