<svg width="34" height="34" viewBox="0 0 34 34" fill="none" xmlns="http://www.w3.org/2000/svg">
<path d="M17.3434 17.0282C22.1611 16.9993 24.6484 14.5092 24.7379 9.60063C24.6553 4.85725 22.0304 2.22816 17.3352 2.19788C12.5835 2.22678 9.94067 5.0417 9.94067 9.60063C9.94067 14.366 12.5849 16.9993 17.3434 17.0282ZM17.3352 3.57436C21.265 3.60052 23.2926 5.63634 23.3614 9.60063C23.2857 13.7053 21.371 15.6283 17.3434 15.6517C13.3103 15.6283 11.3956 13.7094 11.3172 9.61302C11.3929 5.5744 13.364 3.59914 17.3352 3.57436Z" fill="black"/>
<path d="M17.3353 20.4969C10.0963 20.5424 6.20086 24.4433 6.06872 31.78C6.06184 32.1599 6.36466 32.4738 6.74457 32.4807H6.75696C7.13137 32.4807 7.43832 32.1806 7.44521 31.8048C7.56358 25.1632 10.8011 21.9134 17.3339 21.8734C23.7882 21.9147 27.1194 25.2568 27.2322 31.8048C27.2391 32.1847 27.5832 32.4999 27.9329 32.4807C28.3128 32.4738 28.6156 32.1613 28.6087 31.78C28.4834 24.5507 24.4834 20.5424 17.3353 20.4969Z" fill="black"/>
</svg>
