<svg width="24" height="24" viewBox="0 0 24 24" fill="none" xmlns="http://www.w3.org/2000/svg">
<g clip-path="url(#clip0_116_344)">
<path d="M23.268 0.716C22.293 -0.259 20.707 -0.26 19.733 0.716L18.141 2.311C18.141 2.311 18.133 2.315 18.13 2.318C18.127 2.321 18.126 2.326 18.123 2.329L12.319 8.146C11.481 8.984 11.001 10.143 11.001 11.328V12.5C11.001 12.776 11.225 13 11.501 13H12.673C13.858 13 15.017 12.52 15.855 11.682L23.269 4.251C23.742 3.778 24.001 3.15 24.001 2.483C24.001 1.816 23.741 1.187 23.269 0.715L23.268 0.716ZM15.147 10.975C14.496 11.626 13.593 12 12.672 12H12V11.328C12 10.407 12.374 9.505 13.025 8.853L18.485 3.381L20.606 5.502L15.146 10.974L15.147 10.975ZM22.561 3.544L21.313 4.794L19.192 2.673L20.44 1.423C21.024 0.839 21.977 0.839 22.561 1.423C22.844 1.706 23 2.082 23 2.484C23 2.886 22.844 3.261 22.561 3.545V3.544ZM22.676 16.014C22.855 16.658 22.772 17.332 22.442 17.913C22.114 18.494 21.578 18.912 20.934 19.091C20.289 19.269 19.617 19.187 19.035 18.856L18.284 18.431C17.221 19.472 15.926 20.227 14.501 20.639V21.5C14.501 22.879 13.38 24 12.001 24C10.622 24 9.50101 22.879 9.50101 21.5V20.639C8.07601 20.227 6.78101 19.472 5.71801 18.431L4.96601 18.857C4.38401 19.187 3.70801 19.266 3.06801 19.091C2.42401 18.912 1.88801 18.494 1.55901 17.912C1.23001 17.332 1.14701 16.657 1.32601 16.014C1.50401 15.37 1.92301 14.834 2.50401 14.505L3.25201 14.082C3.08601 13.391 3.00201 12.691 3.00201 12C3.00201 11.309 3.08601 10.609 3.25201 9.918L2.50401 9.495C1.92301 9.165 1.50401 8.63 1.32601 7.986C1.14701 7.342 1.23001 6.668 1.56001 6.087C1.88801 5.506 2.42401 5.088 3.06801 4.909C3.71301 4.733 4.38501 4.813 4.96701 5.144L5.71801 5.569C6.78101 4.528 8.07601 3.773 9.50101 3.361V2.5C9.50101 1.121 10.622 4.09782e-08 12.001 4.09782e-08C13.38 4.09782e-08 14.501 1.121 14.501 2.5V3.5C14.501 3.776 14.277 4 14.001 4C13.725 4 13.501 3.776 13.501 3.5V2.5C13.501 1.673 12.828 1 12.001 1C11.174 1 10.501 1.673 10.501 2.5V3.746C10.501 3.976 10.343 4.178 10.118 4.232C8.60501 4.598 7.24001 5.394 6.17101 6.535C6.01201 6.703 5.76101 6.74 5.56001 6.629L4.47401 6.015C4.12501 5.817 3.72001 5.769 3.33401 5.873C2.94801 5.98 2.62701 6.231 2.43001 6.58C2.23201 6.929 2.18201 7.333 2.28901 7.719C2.39501 8.106 2.64601 8.427 2.99601 8.625L4.07801 9.237C4.27901 9.351 4.37601 9.588 4.31201 9.809C4.10501 10.536 4.00001 11.273 4.00001 11.999C4.00001 12.725 4.10401 13.463 4.31201 14.189C4.37501 14.411 4.27901 14.647 4.07801 14.761L2.99501 15.374C2.64601 15.571 2.39501 15.893 2.28901 16.278C2.18201 16.665 2.23101 17.069 2.42901 17.417C2.62701 17.767 2.94901 18.018 3.33401 18.125C3.72001 18.231 4.12401 18.182 4.47301 17.984L5.56001 17.369C5.76201 17.259 6.01301 17.295 6.17101 17.463C7.24001 18.604 8.60601 19.4 10.118 19.766C10.343 19.821 10.501 20.022 10.501 20.252V21.498C10.501 22.325 11.174 22.998 12.001 22.998C12.828 22.998 13.501 22.325 13.501 21.498V20.252C13.501 20.022 13.659 19.82 13.884 19.766C15.397 19.4 16.762 18.604 17.831 17.463C17.989 17.294 18.24 17.257 18.442 17.369L19.528 17.983C19.878 18.181 20.283 18.231 20.668 18.125C21.054 18.018 21.375 17.767 21.572 17.418C21.77 17.069 21.82 16.665 21.713 16.278C21.607 15.892 21.356 15.571 21.007 15.374L19.924 14.761C19.723 14.647 19.626 14.41 19.69 14.189C19.897 13.462 20.002 12.725 20.002 11.999C20.002 11.528 19.958 11.055 19.873 10.59C19.822 10.319 20.002 10.058 20.273 10.008C20.54 9.954 20.805 10.136 20.855 10.408C20.953 10.932 21.001 11.468 21.001 11.999C21.001 12.69 20.917 13.39 20.751 14.081L21.499 14.504C22.08 14.833 22.499 15.369 22.677 16.013L22.676 16.014ZM8.27801 10.534C7.83401 11.662 7.92901 12.936 8.54701 14.124C8.84101 14.688 9.31401 15.161 9.87801 15.455C11.065 16.072 12.339 16.167 13.468 15.724C14.547 15.298 15.388 14.427 15.774 13.334C15.868 13.074 16.153 12.938 16.413 13.029C16.673 13.122 16.809 13.407 16.718 13.668C16.235 15.034 15.184 16.122 13.835 16.653C13.248 16.885 12.631 17 12.006 17C11.14 17 10.259 16.779 9.41801 16.342C8.67201 15.955 8.04801 15.331 7.66101 14.585C6.90701 13.138 6.79701 11.568 7.34901 10.168C7.88001 8.819 8.96801 7.769 10.334 7.285C10.595 7.192 10.879 7.329 10.973 7.59C11.065 7.851 10.928 8.136 10.668 8.229C9.57501 8.615 8.70401 9.455 8.27801 10.534Z" fill="black"/>
</g>
<defs>
<clipPath id="clip0_116_344">
<rect width="24" height="24" fill="white"/>
</clipPath>
</defs>
</svg>
