<svg width="122" height="122" viewBox="0 0 122 122" fill="none" xmlns="http://www.w3.org/2000/svg">
<g clip-path="url(#clip0_66_1102)">
<path d="M118.65 48.1899L100.853 17.6899C96.3139 9.91242 87.906 5.08325 78.9035 5.08325H42.9592C33.9566 5.08325 25.5437 9.9175 21.0043 17.6899L3.20754 48.1899C-1.39796 56.0894 -1.39796 65.9053 3.20754 73.8048L21.0043 104.305C25.5437 112.082 33.9515 116.912 42.9541 116.912H78.8984C87.901 116.912 96.3139 112.077 100.853 104.305L118.645 73.8048C123.25 65.9053 123.256 56.0894 118.65 48.1899ZM109.861 68.6808L92.0744 99.1808C89.3497 103.847 84.302 106.745 78.8984 106.745H42.9541C37.5556 106.745 32.5028 103.847 29.7832 99.1808L11.9915 68.6808C9.22621 63.9381 9.22621 58.0516 11.9915 53.3139L29.7781 22.8139C32.5028 18.1474 37.5505 15.2499 42.9541 15.2499H78.8984C84.2969 15.2499 89.3497 18.1474 92.0693 22.8139L109.861 53.3139C112.626 58.0567 112.626 63.9432 109.861 68.6808ZM79.8439 49.3388L68.1878 60.9948L79.8439 72.6509C81.8315 74.6385 81.8315 77.8512 79.8439 79.8388C78.8526 80.83 77.5513 81.3282 76.25 81.3282C74.9486 81.3282 73.6473 80.83 72.656 79.8388L61 68.1827L49.3439 79.8388C48.3526 80.83 47.0513 81.3282 45.75 81.3282C44.4486 81.3282 43.1473 80.83 42.156 79.8388C40.1685 77.8512 40.1685 74.6385 42.156 72.6509L53.8121 60.9948L42.156 49.3388C40.1685 47.3512 40.1685 44.1385 42.156 42.1509C44.1436 40.1633 47.3563 40.1633 49.3439 42.1509L61 53.807L72.656 42.1509C74.6436 40.1633 77.8563 40.1633 79.8439 42.1509C81.8315 44.1385 81.8315 47.3512 79.8439 49.3388Z" fill="#FF5E00"/>
</g>
<defs>
<clipPath id="clip0_66_1102">
<rect width="122" height="122" fill="white"/>
</clipPath>
</defs>
</svg>
