<svg width="122" height="122" viewBox="0 0 122 122" fill="none" xmlns="http://www.w3.org/2000/svg">
<g clip-path="url(#clip0_66_1094)">
<path d="M117.908 71.5987L106.933 82.5634V91.3169C106.933 99.7248 100.091 106.567 91.6832 106.567H82.9348L71.9649 117.532C69.0929 120.409 65.26 122 61.1832 122C57.1064 122 53.2786 120.414 50.4014 117.532L39.4367 106.567H30.6832C22.2754 106.567 15.4332 99.7248 15.4332 91.3169V82.5634L4.46844 71.5987C-1.47906 65.6563 -1.47906 55.9776 4.46844 50.0301L15.4332 39.0654V30.3169C15.4332 21.9091 22.2754 15.0669 30.6832 15.0669H39.4367L50.4014 4.09711C56.1659 -1.67248 66.2157 -1.65723 71.97 4.09711L82.9348 15.0619H91.6832C94.4943 15.0619 96.7665 17.3392 96.7665 20.1452C96.7665 22.9512 94.4943 25.2285 91.6832 25.2285H80.8303C79.4781 25.2285 78.1869 24.6948 77.2364 23.7391L64.7771 11.2799C62.8607 9.36852 59.5209 9.35836 57.5893 11.2799L45.1351 23.7391C44.1794 24.6948 42.8934 25.2285 41.5412 25.2285H30.6832C27.8772 25.2285 25.5999 27.5109 25.5999 30.3119V41.1648C25.5999 42.5119 25.0661 43.8081 24.1104 44.7587L11.6563 57.2129C9.67377 59.1954 9.67377 62.4182 11.6563 64.4058L24.1104 76.8599C25.0661 77.8156 25.5999 79.1017 25.5999 80.4538V91.3118C25.5999 94.1178 27.8772 96.3952 30.6832 96.3952H41.5412C42.8934 96.3952 44.1845 96.9289 45.1351 97.8846L57.5893 110.339C59.5159 112.26 62.8607 112.26 64.772 110.339L77.2364 97.8846C78.192 96.9289 79.4781 96.3952 80.8303 96.3952H91.6832C94.4892 96.3952 96.7665 94.1178 96.7665 91.3118V80.4538C96.7665 79.1017 97.3003 77.8105 98.256 76.8599L110.715 64.4058C112.698 62.4233 112.698 59.1954 110.715 57.2129C108.733 55.2253 108.733 52.0075 110.715 50.025C112.703 48.0425 115.921 48.0374 117.908 50.025C123.845 55.9674 123.845 65.641 117.908 71.5885V71.5987ZM54.4986 69.4484L39.1571 54.2594C37.1543 52.2769 33.9467 52.3024 31.9642 54.295C29.9868 56.2877 30.0071 59.5054 31.9998 61.4829L47.3464 76.6769C50.4675 79.7676 54.5749 81.318 58.6771 81.318C62.7794 81.318 66.8969 79.7574 70.0231 76.6515L115.417 31.5573C117.41 29.5799 117.42 26.3621 115.438 24.3694C113.455 22.3768 110.242 22.3615 108.25 24.344L62.8556 69.4434C60.5529 71.7359 56.8064 71.7359 54.4986 69.4484Z" fill="#00C7F4"/>
</g>
<defs>
<clipPath id="clip0_66_1094">
<rect width="122" height="122" fill="white"/>
</clipPath>
</defs>
</svg>
