<svg width="118" height="118" viewBox="0 0 118 118" fill="none" xmlns="http://www.w3.org/2000/svg">
<g clip-path="url(#clip0_66_439)">
<path d="M59 44.25C64.4231 44.25 68.8333 39.8398 68.8333 34.4167C68.8333 28.9936 64.4231 24.5834 59 24.5834C53.5769 24.5834 49.1667 28.9936 49.1667 34.4167C49.1667 39.8398 53.5769 44.25 59 44.25ZM59 29.5C61.7091 29.5 63.9167 31.7076 63.9167 34.4167C63.9167 37.1258 61.7091 39.3334 59 39.3334C56.2909 39.3334 54.0833 37.1258 54.0833 34.4167C54.0833 31.7076 56.2909 29.5 59 29.5ZM28.5117 46.1774C28.0102 48.085 28.2856 50.0714 29.2787 51.7676C30.2719 53.4688 31.8649 54.6832 33.7726 55.1847C35.6753 55.6813 37.6666 55.4158 39.3628 54.4177L42.5144 52.5789C45.1547 54.9831 48.2522 56.7679 51.625 57.8299V61.4584C51.625 65.5245 54.9339 68.8334 59 68.8334C63.0661 68.8334 66.375 65.5245 66.375 61.4584V57.8299C69.7527 56.763 72.8453 54.9782 75.4856 52.5789L78.6322 54.4177C80.3334 55.4158 82.3197 55.6813 84.2274 55.1847C86.1351 54.6832 87.7281 53.4688 88.7212 51.7725C89.7144 50.0714 89.9848 48.085 89.4883 46.1823C88.9917 44.2795 87.7723 42.6767 86.0712 41.6835L82.895 39.83C83.3572 37.937 83.5833 36.1572 83.5833 34.4216C83.5833 32.686 83.3572 30.9062 82.895 29.0084L86.0712 27.1548C87.7723 26.1616 88.9867 24.5637 89.4883 22.656C89.9898 20.7484 89.7144 18.762 88.7212 17.0658C87.7281 15.3646 86.1351 14.1502 84.2274 13.6487C82.3148 13.1521 80.3334 13.4176 78.6322 14.4108L75.4807 16.2496C72.8404 13.8503 69.7429 12.0606 66.3701 10.9986V7.37012C66.3701 3.30403 63.0612 -0.00488281 58.9951 -0.00488281C54.929 -0.00488281 51.6201 3.30403 51.6201 7.37012V10.9986C48.2423 12.0606 45.1497 13.8503 42.5095 16.2496L39.3579 14.4108C37.6567 13.4176 35.6704 13.1521 33.7627 13.6487C31.86 14.1502 30.2621 15.3646 29.2689 17.0609C28.2757 18.762 28.0053 20.7484 28.5019 22.6511C28.9985 24.5539 30.2178 26.1567 31.919 27.1499L35.0952 29.0035C34.633 30.8964 34.4068 32.6811 34.4068 34.4167C34.4068 36.1523 34.633 37.9321 35.0952 39.825L31.919 41.6786C30.2178 42.6718 29.0034 44.2697 28.5019 46.1774H28.5117ZM33.2662 47.4262C33.4333 46.792 33.8365 46.256 34.4019 45.9266L39.2153 43.1143C40.2085 42.5341 40.6657 41.3492 40.3216 40.2528C39.6431 38.0944 39.3284 36.2359 39.3284 34.4118C39.3284 32.5877 39.6431 30.7341 40.3216 28.5708C40.6657 27.4744 40.2085 26.2894 39.2153 25.7142L34.4019 22.9068C33.8365 22.5774 33.4284 22.0415 33.2662 21.4072C33.099 20.7729 33.1875 20.1141 33.5218 19.5438C33.8512 18.9784 34.3872 18.5703 35.0214 18.408C35.6507 18.236 36.3145 18.3294 36.8848 18.6588L41.6589 21.4465C42.6472 22.0267 43.9108 21.8448 44.6925 21.0089C47.3918 18.1278 50.8334 16.1464 54.6291 15.281C55.7501 15.0254 56.5417 14.0322 56.5417 12.8866V7.37995C56.5417 6.02295 57.643 4.92162 59 4.92162C60.357 4.92162 61.4583 6.02295 61.4583 7.37995V12.8866C61.4583 14.0322 62.2499 15.0303 63.3709 15.281C67.1715 16.1464 70.6082 18.1278 73.3075 21.0089C74.0942 21.8448 75.3528 22.0267 76.3411 21.4465L81.1152 18.6588C81.6855 18.3294 82.3443 18.236 82.9786 18.408C83.6128 18.5752 84.1438 18.9784 84.4782 19.5487C84.8076 20.1141 84.901 20.7779 84.7338 21.4072C84.5667 22.0415 84.1635 22.5774 83.5981 22.9068L78.7847 25.7142C77.7915 26.2894 77.3342 27.4744 77.6784 28.5708C78.3569 30.7341 78.6716 32.5926 78.6716 34.4118C78.6716 36.2309 78.3569 38.0895 77.6784 40.2528C77.3342 41.3492 77.7915 42.5341 78.7847 43.1143L83.5981 45.9266C84.1635 46.256 84.5716 46.792 84.7338 47.4262C84.901 48.0605 84.8125 48.7193 84.4782 49.2896C84.1487 49.855 83.6128 50.2631 82.9786 50.4254C82.3443 50.5925 81.6757 50.4991 81.1152 50.1697L76.3411 47.382C75.3528 46.8067 74.0942 46.9837 73.3075 47.8245C70.6082 50.7056 67.1666 52.687 63.3709 53.5524C62.2499 53.808 61.4583 54.8012 61.4583 55.9468V61.4534C61.4583 62.8104 60.357 63.9118 59 63.9118C57.643 63.9118 56.5417 62.8104 56.5417 61.4534V55.9468C56.5417 54.8012 55.7501 53.8031 54.6291 53.5524C50.8285 52.687 47.3918 50.7056 44.6925 47.8245C44.2156 47.3131 43.5617 47.0476 42.8979 47.0476C42.4751 47.0476 42.0473 47.1558 41.6589 47.382L36.8848 50.1697C36.3194 50.4991 35.6606 50.5925 35.0214 50.4254C34.3872 50.2582 33.8562 49.855 33.5218 49.2847C33.1924 48.7193 33.099 48.0555 33.2662 47.4262ZM103.245 78.6667H14.75C6.61783 78.6667 0 85.2845 0 93.4167V103.25C0 111.382 6.61783 118 14.75 118H103.25C111.382 118 118 111.382 118 103.25V93.4167C118 85.2845 111.377 78.6667 103.245 78.6667ZM4.91667 103.25V93.4167C4.91667 87.9936 9.32692 83.5834 14.75 83.5834H73.75V113.083H14.75C9.32692 113.083 4.91667 108.673 4.91667 103.25ZM113.083 103.25C113.083 108.673 108.673 113.083 103.25 113.083H78.6667V83.5834H103.25C108.673 83.5834 113.083 87.9936 113.083 93.4167V103.25Z" fill="#FFA200"/>
<path d="M4.91667 103.25V93.4167C4.91667 87.9936 9.32692 83.5834 14.75 83.5834H73.75V113.083H14.75C9.32692 113.083 4.91667 108.673 4.91667 103.25Z" fill="#FFA200"/>
</g>
<defs>
<clipPath id="clip0_66_439">
<rect width="118" height="118" fill="white"/>
</clipPath>
</defs>
</svg>
