<svg width="24" height="24" viewBox="0 0 24 24" fill="none" xmlns="http://www.w3.org/2000/svg">
<g clip-path="url(#clip0_116_324)">
<path d="M18.5 9.9999C18.776 9.9999 19 9.7759 19 9.4999V6.3089L23.348 4.1339C23.756 3.8539 24 3.3769 24 2.8579C24 2.3389 23.757 1.8619 23.348 1.5809C23.323 1.5639 20.072 0.1209 19.874 0.0608998C19.436 -0.0721002 18.974 0.0118998 18.603 0.2879C18.225 0.5689 17.999 1.0159 17.999 1.4849V9.5009C17.999 9.7769 18.223 10.0009 18.499 10.0009L18.5 9.9999ZM19 1.4839C19 1.3299 19.074 1.1829 19.199 1.0899C19.251 1.0519 19.343 0.9989 19.463 0.9989C19.501 0.9989 19.896 1.1229 20.047 1.1899L22.811 2.4269C22.93 2.5239 23 2.6819 23 2.8569C23 3.0449 22.918 3.2139 22.841 3.2739L19 5.1909V1.4839ZM24 18.4999C24 20.4299 22.43 21.9999 20.5 21.9999H14.5C14.224 21.9999 14 21.7759 14 21.4999C14 21.2239 14.224 20.9999 14.5 20.9999H20.5C21.879 20.9999 23 19.8779 23 18.4999C23 17.1219 21.879 15.9999 20.5 15.9999H12.5C10.57 15.9999 9 14.4299 9 12.4999C9 10.5699 10.57 8.9999 12.5 8.9999H15.5C15.776 8.9999 16 9.2239 16 9.4999C16 9.7759 15.776 9.9999 15.5 9.9999H12.5C11.122 9.9999 10 11.1219 10 12.4999C10 13.8779 11.122 14.9999 12.5 14.9999H20.5C22.43 14.9999 24 16.5699 24 18.4999ZM10 17.9999H9.07L7.812 16.1129C7.347 15.4159 6.57 14.9999 5.732 14.9999H2.5C1.122 14.9999 0 16.1219 0 17.4999V19.9999C0 20.7709 0.443 21.4339 1.084 21.7679C1.034 21.9249 1 22.0849 1 22.2499C1 23.2149 1.785 23.9999 2.75 23.9999C3.715 23.9999 4.5 23.2149 4.5 22.2499C4.5 22.1639 4.47 22.0839 4.456 21.9999H6.544C6.531 22.0839 6.5 22.1639 6.5 22.2499C6.5 23.2149 7.285 23.9999 8.25 23.9999C9.215 23.9999 10 23.2149 10 22.2499C10 22.1639 9.97 22.0839 9.956 21.9999H10C11.103 21.9999 12 21.1029 12 19.9999C12 18.8969 11.103 17.9999 10 17.9999ZM2.5 15.9999H5.732C6.234 15.9999 6.701 16.2499 6.98 16.6679L7.868 17.9999H1V17.4999C1 16.6729 1.673 15.9999 2.5 15.9999ZM3.5 22.2499C3.5 22.6639 3.164 22.9999 2.75 22.9999C2.336 22.9999 2 22.6639 2 22.2499C2 22.1659 2.018 22.0829 2.054 21.9999H3.446C3.482 22.0829 3.5 22.1659 3.5 22.2499ZM9 22.2499C9 22.6639 8.664 22.9999 8.25 22.9999C7.836 22.9999 7.5 22.6639 7.5 22.2499C7.5 22.1659 7.518 22.0829 7.554 21.9999H8.946C8.982 22.0829 9 22.1659 9 22.2499ZM10 20.9999H2C1.449 20.9999 1 20.5509 1 19.9999V18.9999H10C10.551 18.9999 11 19.4489 11 19.9999C11 20.5509 10.551 20.9999 10 20.9999Z" fill="black"/>
</g>
<defs>
<clipPath id="clip0_116_324">
<rect width="24" height="24" fill="white"/>
</clipPath>
</defs>
</svg>
