<svg width="24" height="24" viewBox="0 0 24 24" fill="none" xmlns="http://www.w3.org/2000/svg">
<g clip-path="url(#clip0_116_330)">
<path d="M7.5 13C9.981 13 12 10.981 12 8.5C12 6.019 9.981 4 7.5 4C5.019 4 3 6.019 3 8.5C3 10.981 5.019 13 7.5 13ZM7.5 5C9.43 5 11 6.57 11 8.5C11 10.43 9.43 12 7.5 12C5.57 12 4 10.43 4 8.5C4 6.57 5.57 5 7.5 5ZM15 22.5V23.5C15 23.776 14.776 24 14.5 24C14.224 24 14 23.776 14 23.5V22.5C14 18.916 11.084 16 7.5 16C3.916 16 1 18.916 1 22.5V23.5C1 23.776 0.776 24 0.5 24C0.224 24 0 23.776 0 23.5V22.5C0 18.364 3.364 15 7.5 15C11.636 15 15 18.364 15 22.5ZM24 17.863V18.5C24 18.776 23.776 19 23.5 19C23.224 19 23 18.776 23 18.5V17.863C23 14.63 20.37 12 17.137 12C15.78 12 14.652 12.307 13.786 12.91C13.558 13.068 13.247 13.013 13.09 12.786C12.933 12.559 12.987 12.248 13.214 12.09C14.251 11.366 15.571 11 17.137 11C20.921 11 24 14.079 24 17.863ZM17.5 9C19.981 9 22 6.981 22 4.5C22 2.019 19.981 0 17.5 0C15.019 0 13 2.019 13 4.5C13 6.981 15.019 9 17.5 9ZM17.5 1C19.43 1 21 2.57 21 4.5C21 6.43 19.43 8 17.5 8C15.57 8 14 6.43 14 4.5C14 2.57 15.57 1 17.5 1Z" fill="black"/>
</g>
<defs>
<clipPath id="clip0_116_330">
<rect width="24" height="24" fill="white"/>
</clipPath>
</defs>
</svg>
