<svg width="24" height="24" viewBox="0 0 24 24" fill="none" xmlns="http://www.w3.org/2000/svg">
<g clip-path="url(#clip0_116_338)">
<path d="M19.9998 8C22.2058 8 23.9998 6.206 23.9998 4C23.9998 1.794 22.2058 0 19.9998 0C17.7938 0 15.9998 1.794 15.9998 4C15.9998 6.206 17.7938 8 19.9998 8ZM19.9998 1C21.6538 1 22.9998 2.346 22.9998 4C22.9998 5.654 21.6538 7 19.9998 7C18.3458 7 16.9998 5.654 16.9998 4C16.9998 2.346 18.3458 1 19.9998 1ZM19.1608 11.87C18.7278 11.058 17.9198 10.573 16.9998 10.573C16.0798 10.573 15.2708 11.058 14.8388 11.87L10.2908 20.398C9.88278 21.164 9.90378 22.065 10.3518 22.809C10.7978 23.554 11.5828 23.999 12.4528 23.999H21.5488C22.4178 23.999 23.2028 23.554 23.6498 22.809C24.0968 22.065 24.1188 21.163 23.7108 20.398L19.1628 11.87H19.1608ZM22.7908 22.296C22.5258 22.736 22.0618 23 21.5478 23H12.4518C11.9368 23 11.4728 22.736 11.2088 22.296C10.9448 21.856 10.9318 21.322 11.1738 20.869L15.7218 12.341C15.9778 11.861 16.4548 11.573 16.9998 11.573C17.5448 11.573 18.0218 11.86 18.2778 12.341L22.8258 20.869C23.0678 21.322 23.0548 21.855 22.7908 22.296ZM9.97578 6C9.44178 6 8.97378 6.281 8.72278 6.752L1.16978 20.912C0.932784 21.356 0.945784 21.88 1.20478 22.311C1.46378 22.742 1.91878 22.999 2.42178 22.999H7.49978C7.77578 22.999 7.99978 23.223 7.99978 23.499C7.99978 23.775 7.77578 23.999 7.49978 23.999H2.42178C1.56478 23.999 0.788784 23.561 0.347784 22.825C-0.0932164 22.089 -0.116216 21.198 0.286784 20.44L7.83978 6.281C8.26778 5.479 9.06678 5 9.97578 5C10.8848 5 11.6828 5.479 12.1108 6.281L13.7018 9.264C13.8318 9.508 13.7388 9.811 13.4958 9.941C13.2518 10.069 12.9488 9.979 12.8188 9.735L11.2278 6.752C10.9768 6.281 10.5088 6 9.97578 6Z" fill="black"/>
</g>
<defs>
<clipPath id="clip0_116_338">
<rect width="24" height="24" fill="white"/>
</clipPath>
</defs>
</svg>
